<?xml version="1.0" standalone="no"?>
<!DOCTYPE svg PUBLIC "-//W3C//DTD SVG 20010904//EN"
 "http://www.w3.org/TR/2001/REC-SVG-20010904/DTD/svg10.dtd">
<svg version="1.0" xmlns="http://www.w3.org/2000/svg"
 width="2717.000000pt" height="2717.000000pt" viewBox="0 0 2717.000000 2717.000000"
 preserveAspectRatio="xMidYMid meet">

<g transform="translate(0.000000,2717.000000) scale(0.100000,-0.100000)"
fill="#000000" stroke="none">
<path d="M0 25130 l0 -2040 4500 0 4500 0 -2 -3280 -3 -3281 -140 -63 c-188
-85 -4060 -1851 -6700 -3056 -1172 -535 -2136 -972 -2142 -973 -10 0 -13 -373
-13 -1829 0 -1738 1 -1828 18 -1820 9 5 6122 2785 13584 6178 l13568 6169 0
3017 0 3018 -13585 0 -13585 0 0 -2040z m23320 -2084 c-25 -13 -301 -141 -615
-284 -313 -144 -2755 -1260 -5425 -2482 -2670 -1222 -4861 -2224 -4867 -2227
-10 -4 -13 501 -13 2506 l0 2511 5483 0 5482 -1 -45 -23z"/>
<path d="M22805 12900 c-2398 -1094 -4485 -2046 -4637 -2116 l-278 -126 0
-1919 0 -1919 4640 0 4640 0 0 4035 c0 2219 -1 4035 -2 4034 -2 0 -1965 -896
-4363 -1989z"/>
<path d="M14010 8914 c-223 -102 -562 -256 -755 -343 -192 -88 -564 -256 -825
-374 -261 -118 -500 -226 -530 -240 -56 -26 -441 -200 -1285 -582 -264 -120
-552 -250 -640 -290 -88 -40 -252 -114 -365 -165 -113 -51 -209 -96 -215 -101
-5 -5 1044 -8 2518 -7 l2527 3 3 1142 c2 1011 0 1143 -13 1142 -8 -1 -197 -84
-420 -185z"/>
</g>
</svg>
